# xmcd
# 
# Track frame offsets:
#     150
#     13042
#     30735
#     48694
#     68759
#     83413
#     102545
#     120700
#     133275
#     150167
#     170699
#     183925
# 
# Disc length: 2660
# 
# Revision: 1
# Processed by: cddbd v1.5.2PL0 Copyright (c) Steve Scherf et al.
# Submitted via: fre:ac v1.0.31
# 
DISCID=9a0a620c
DTITLE=Celtic Thunder - Islands
DYEAR=2014
DGENRE=Celtic
TTITLE0=A Place In The Choir
TTITLE1=The Island
TTITLE2=Amazing Grace
TTITLE3=Isle Of Hope, Isle Of Tears
TTITLE4=Lagan Love
TTITLE5=Moondance
TTITLE6=Noreen
TTITLE7=Harry's Game
TTITLE8=The Old Man
TTITLE9=The Green Fields of France
TTITLE10=Hail The Hero (Mo Ghile Mear)
TTITLE11=Ireland's Call
EXTD=
EXTT0=
EXTT1=
EXTT2=
EXTT3=
EXTT4=
EXTT5=
EXTT6=
EXTT7=
EXTT8=
EXTT9=
EXTT10=
EXTT11=
PLAYORDER=
